<svg width="792" height="380" viewBox="0 0 792 380" fill="none" xmlns="http://www.w3.org/2000/svg">
<g clip-path="url(#clip0)">
<path d="M33.8238 217.561C33.8238 243.254 25.3678 251.896 0 251.896V299.428C7.74135 300.479 14.1726 300.713 20.9612 300.713C66.6947 300.713 93.7299 279.341 93.7299 224.451V74.8479H33.8238V217.561ZM132.675 300.129H190.556V126.935H132.675V300.129ZM322.874 126.935V300.246H380.756V126.935H322.874Z" fill="#353C42"/>
<path d="M215.244 376.042C268.024 369.709 287.905 337.227 287.905 286.334V81.9398H231.101V289.734C231.101 319.168 222.699 325.148 206.25 333.24L215.244 376.042ZM259.621 66.4607C278.437 66.4607 292.875 54.0306 292.875 35.3854C292.875 16.6229 278.437 3.95825 259.621 3.95825C240.805 3.95825 226.723 16.6229 226.723 35.3854C226.723 54.1479 240.805 66.4607 259.621 66.4607Z" fill="#3DB83A"/>
<path fill-rule="evenodd" clip-rule="evenodd" d="M350.625 43.5415C368.865 43.5415 383.625 57.7051 383.625 75.2082C383.625 92.7112 368.865 106.875 350.625 106.875C332.385 106.875 317.625 92.7112 317.625 75.2082C317.625 57.7051 332.385 43.5415 350.625 43.5415Z" fill="#FF4028"/>
<path fill-rule="evenodd" clip-rule="evenodd" d="M160.875 43.5415C179.115 43.5415 193.875 57.7051 193.875 75.2082C193.875 92.7112 179.115 106.875 160.875 106.875C142.635 106.875 127.875 92.7112 127.875 75.2082C127.875 57.7051 142.635 43.5415 160.875 43.5415Z" fill="#FFC112"/>
<path fill-rule="evenodd" clip-rule="evenodd" d="M602.75 4C707.609 4 792.5 87.3495 792.5 190.042C792.5 292.734 707.609 376.083 602.75 376.083C498.011 376.083 413 292.851 413 190.042C413 87.2323 498.011 4 602.75 4Z" fill="#3DB83A"/>
<path fill-rule="evenodd" clip-rule="evenodd" d="M483.625 215C494.975 215 504.25 223.783 504.25 234.792C504.25 245.683 495.097 254.583 483.625 254.583C472.275 254.583 463 245.8 463 234.792C463 223.9 472.275 215 483.625 215Z" fill="white"/>
<path d="M666.148 151.859C673.23 142.179 682.279 137.339 693.295 137.339C705.033 137.339 713.885 141.111 719.852 148.656C725.82 156.201 728.869 167.341 729 182.076V255H695.754V182.93C695.754 176.808 694.607 172.324 692.311 169.477C690.016 166.558 686.115 165.099 680.607 165.099C673.787 165.099 668.967 167.448 666.148 172.146V255H633V91H666.148V151.859Z" fill="white"/>
<path fill-rule="evenodd" clip-rule="evenodd" d="M633.274 128.122V155.143C628.364 154.441 622.136 153.622 615.908 154.675C617.824 159.237 619.022 164.618 619.022 170.116C619.022 194.096 600.098 209.537 566.204 209.537C561.653 209.537 557.701 209.303 553.868 208.835C551.233 210.94 549.796 213.397 549.796 215.97C549.796 220.298 551.952 221.936 560.216 222.17L587.523 223.34C616.626 224.509 629.202 237.845 629.202 260.187C629.202 287.793 610.159 303 566.564 303C527.999 303 511.83 290.835 511.83 271.651C511.83 255.976 522.25 249.659 530.993 245.331C523.687 241.705 517.938 235.037 517.938 225.094C517.938 216.644 522.345 209.172 530.151 203.751C522.326 201.092 515.206 192.946 512.303 182.193C510.808 176.655 510.643 171.208 511.586 166.418V165.787C511.586 164.796 512.617 161.822 512.617 161.822L513.648 158.849L515.711 154.884C523.961 141.007 541.173 129.993 566.923 129.993C581.415 129.993 593.032 133.035 601.296 138.299C609.56 131.748 617.824 127.186 633.274 128.122ZM591.116 266.036C591.116 261.24 588.481 257.497 578.301 256.561L548.479 253.636C546.802 256.444 545.604 259.368 545.604 263.345C545.604 273.288 552.91 277.85 569.318 277.85C582.852 277.85 591.116 274.575 591.116 266.036ZM553.389 169.414C553.389 179.825 557.222 186.96 566.444 186.96C574.229 186.96 579.498 181.93 579.498 170.116C579.498 159.939 575.666 152.102 566.204 152.102C557.701 152.102 553.389 158.301 553.389 169.414Z" fill="white"/>
</g>
<defs>
<clipPath id="clip0">
<rect width="792" height="380" fill="white"/>
</clipPath>
</defs>
</svg>
